<svg width="64" height="64" viewBox="0 0 64 64" fill="none" xmlns="http://www.w3.org/2000/svg">
<rect width="64" height="64" rx="32" fill="url(#paint0_radial_149_298)"/>
<path d="M19.8269 19.8345C21.6825 17.9816 24.6899 17.5242 28.3017 18.5439C31.32 19.3988 34.4662 21.2081 37.3156 23.7077C37.1509 23.8384 36.9889 23.9636 36.8337 24.0848C34.0755 21.6806 31.0436 19.9448 28.1411 19.1197C26.9349 18.7794 25.8035 18.6078 24.7702 18.6078C22.8969 18.6078 21.3449 19.1674 20.253 20.2579C16.9788 23.528 18.7378 30.7054 24.0922 36.8562C24.2774 37.0686 24.4625 37.2769 24.6545 37.4866L24.8301 37.6758C24.9418 37.7902 25.0493 37.9086 25.1637 38.0257C25.278 38.14 25.3924 38.2585 25.5067 38.3728C25.6647 38.5308 25.8239 38.6901 25.9846 38.8412C26.0581 38.912 26.133 38.9828 26.2065 39.0495L26.7157 39.5205C26.8164 39.6076 26.9212 39.6989 27.022 39.786C29.7843 42.1971 32.8216 43.9383 35.7323 44.7606C39.1236 45.7245 41.9267 45.3201 43.6203 43.6252C45.3153 41.9316 45.7183 39.1284 44.7585 35.7372C43.9335 32.8333 42.1949 29.7987 39.7907 27.0404C39.9119 26.8852 40.0371 26.7273 40.1678 26.5626C42.6701 29.412 44.4794 32.5583 45.3316 35.5724C46.3554 39.1829 45.898 42.1943 44.0451 44.0472C42.8362 45.2562 41.1385 45.8688 39.1073 45.8688C38.0154 45.8688 36.8296 45.6932 35.5703 45.3365C32.0197 44.329 28.2949 42.0092 25.082 38.7949C18.407 32.1185 16.049 23.611 19.8283 19.8318L19.8269 19.8345Z" fill="#06070B"/>
<path fill-rule="evenodd" clip-rule="evenodd" d="M24.8654 24.873C28.3819 29.653 29.3921 31.7672 25.8183 36.7596C26.0239 36.9815 26.2363 37.2006 26.4555 37.4198C26.6747 37.639 26.8939 37.8514 27.1185 38.0597C32.1094 34.486 34.2292 35.4962 39.005 39.0127C35.4885 34.2368 34.4783 32.1185 38.052 27.1262C38.6184 26.3352 39.3018 25.4693 40.1105 24.5095C41.9266 22.3503 44.3676 19.7133 47.5343 16.3452C44.1661 19.5118 41.5291 21.9528 39.3699 23.7689C38.4101 24.5735 37.5442 25.2583 36.7532 25.8233C31.7609 29.397 29.6426 28.3869 24.8667 24.873H24.8654Z" fill="#06070B"/>
<path fill-rule="evenodd" clip-rule="evenodd" d="M16.3375 47.5419C19.7097 44.3753 22.3468 41.9302 24.506 40.1181C24.3808 39.997 24.2528 39.8717 24.1289 39.7478C24.005 39.6226 23.8798 39.4987 23.7613 39.3707C21.9493 41.5327 19.5042 44.1697 16.3375 47.5419Z" fill="#06070B"/>
<path d="M32.3044 7.38434L32.4732 4.43304L32.7985 4.4521L34.3572 6.93375L34.2102 6.94056L34.3477 4.54059L34.7397 4.56237L34.5709 7.51367L34.2456 7.49461L32.6951 4.99798L32.8312 4.98982L32.6937 7.40612L32.3057 7.38434H32.3044Z" fill="#06070B"/>
<path d="M35.5674 7.65254L36.0779 4.74072L36.4604 4.80743L36.0125 7.36667L37.2908 7.58992L37.2295 7.94114L35.5687 7.64982L35.5674 7.65254Z" fill="#06070B"/>
<path d="M38.2451 8.17799L38.3268 5.10962L38.7175 5.23077L38.6113 7.92207L38.5201 7.89348L39.9794 5.62011L40.3701 5.74126L40.287 8.43936L40.1918 8.40941L41.6279 6.12923L42.0186 6.25039L40.3524 8.82869L39.9386 8.70073L40.0148 6.01216L40.1128 6.04211L38.6562 8.30323L38.2424 8.17527L38.2451 8.17799Z" fill="#06070B"/>
<path d="M41.8798 9.43445L42.3943 8.87087L41.9682 8.65851L42.118 8.3563L42.6298 8.61086L43.207 7.98466L42.7809 7.7723L42.9307 7.47009L43.4425 7.72466L43.9557 7.16516L44.3002 7.33668L43.7869 7.89618L44.4798 8.24059L44.9931 7.68109L45.3415 7.85398L44.8283 8.41347L45.2544 8.62584L45.1047 8.92804L44.5901 8.67212L44.017 9.29968L44.4431 9.51204L44.2933 9.81425L43.7815 9.55969L43.2669 10.1233L42.9184 9.95038L43.433 9.3868L42.7401 9.04239L42.2255 9.60597L41.8811 9.43445H41.8798ZM42.9783 8.78375L43.6712 9.12816L44.2443 8.5006L43.5514 8.15619L42.9783 8.78375Z" fill="#06070B"/>
<path d="M45.3007 11.3008L46.7219 9.10094L46.2523 8.79737L46.4347 8.51422L47.2351 9.03015L45.6315 11.5132L45.3021 11.2994L45.3007 11.3008Z" fill="#06070B"/>
<path d="M47.5632 12.9398L47.9866 12.4048L46.8485 11.5023L47.0486 11.2504L49.3928 10.6174L49.6855 10.8489L48.4725 12.379L48.7748 12.6185L48.5746 12.8704L48.2738 12.6308L47.8504 13.1658L47.5646 12.9384L47.5632 12.9398ZM47.1929 11.5418L47.2351 11.3988L48.1867 12.153L49.1968 10.8774L49.2675 10.9741L47.1929 11.5418Z" fill="#06070B"/>
<path d="M51.285 14.67L51.5491 14.459L53.4562 16.8454L53.1935 17.0564L51.2863 14.67H51.285Z" fill="#06070B"/>
<path d="M53.7844 20.5059L56.4457 19.2181L57.3006 20.9865L56.8718 21.1934L56.251 19.911L55.569 20.2405L56.1544 21.4507L55.7256 21.6576L55.1402 20.4474L54.4473 20.7823L55.0681 22.0646L54.6393 22.2715L53.7844 20.5032V20.5059Z" fill="#06070B"/>
<path d="M54.8434 22.7358L56.5669 23.1618L57.6382 21.7733L57.841 22.3573L56.963 23.494L56.8691 23.2245L58.2617 23.5675L58.4645 24.1515L56.7642 23.7309L55.6752 25.1303L55.4724 24.5463L56.364 23.4001L56.4579 23.6696L55.0463 23.3198L54.8434 22.7358Z" fill="#06070B"/>
<path d="M55.8427 25.781L58.7313 25.152L58.9655 26.2302C59.0077 26.4262 59.0104 26.6086 58.9723 26.7747C58.9342 26.9408 58.8566 27.0824 58.7395 27.1967C58.6224 27.3111 58.4672 27.39 58.2726 27.4322C58.0806 27.4744 57.9091 27.4662 57.7539 27.4091C57.6001 27.3519 57.4694 27.2566 57.3646 27.1218C57.2598 26.9871 57.1863 26.8224 57.1427 26.6263L57.0229 26.0764L55.957 26.3078L55.8427 25.781ZM57.4885 25.9756L57.6096 26.5338C57.63 26.6291 57.6668 26.708 57.7199 26.7693C57.773 26.8305 57.837 26.8741 57.9118 26.8986C57.9881 26.9231 58.0697 26.9258 58.1569 26.9068C58.2481 26.8877 58.3216 26.8509 58.3788 26.7978C58.4359 26.7448 58.4768 26.6794 58.4985 26.6018C58.5203 26.5242 58.5217 26.4371 58.5013 26.3418L58.3801 25.7837L57.4885 25.977V25.9756Z" fill="#06070B"/>
<path d="M56.4048 28.6438L59.3466 28.3497L59.5413 30.3046L59.0675 30.3522L58.926 28.9351L58.1718 29.01L58.3052 30.3481L57.8315 30.3958L57.6981 29.0576L56.9317 29.1338L57.0732 30.551L56.5995 30.5986L56.4048 28.6438Z" fill="#06070B"/>
<path d="M56.6308 31.3432L59.5862 31.3908L59.5685 32.4894C59.5658 32.6909 59.5263 32.8679 59.4514 33.0217C59.3766 33.1755 59.269 33.2939 59.1274 33.3797C58.9872 33.4641 58.8184 33.5049 58.6197 33.5022C58.4155 33.4995 58.2439 33.4478 58.1024 33.3498C57.9608 33.2504 57.8573 33.1183 57.7906 32.9536L56.5941 33.6125L56.6036 33.0013L57.9132 32.2961L57.7008 32.6419L57.713 31.9L56.6226 31.8823L56.6308 31.3432ZM58.1895 31.9081L58.18 32.4758C58.1786 32.5738 58.1963 32.6582 58.2331 32.7304C58.2698 32.8025 58.3229 32.8583 58.391 32.8992C58.459 32.94 58.538 32.9618 58.6278 32.9631C58.7204 32.9645 58.8007 32.9468 58.8688 32.9073C58.9369 32.8692 58.9913 32.8148 59.0308 32.744C59.0703 32.6732 59.0907 32.5888 59.092 32.4908L59.1016 31.9231L58.1895 31.9081Z" fill="#06070B"/>
<path d="M56.4661 34.756L58.9273 35.0555L59.0199 34.2959L59.4923 34.3531L59.2432 36.4005L58.7708 36.3433L58.862 35.5946L56.4008 35.2937L56.4661 34.7547V34.756Z" fill="#06070B"/>
<path d="M56.899 39.3055L57.2162 39.4198L56.1857 42.2963L55.8685 42.1833L56.899 39.3068V39.3055Z" fill="#06070B"/>
<path d="M53.2262 44.5329L55.6983 46.1528L55.52 46.4251L52.5919 46.5353L52.6586 46.4033L54.6692 47.721L54.4541 48.0491L51.982 46.4292L52.1603 46.1569L55.098 46.0616L55.0368 46.1828L53.0125 44.8555L53.2262 44.5302V44.5329Z" fill="#06070B"/>
<path d="M51.3653 47.2228L53.6333 49.1191L53.3841 49.4172L51.3912 47.7496L50.5595 48.7447L50.2858 48.516L51.3681 47.2228H51.3653Z" fill="#06070B"/>
<path d="M49.5711 49.2811L52.1916 50.8806L51.8922 51.1583L49.612 49.7249L49.6814 49.6595L50.9243 52.0568L50.6248 52.3345L48.3269 50.9174L48.3991 50.8493L49.6596 53.2316L49.3601 53.5093L47.9539 50.7799L48.2711 50.4858L50.5635 51.8921L50.4887 51.9628L49.2526 49.5738L49.5698 49.2797L49.5711 49.2811Z" fill="#06070B"/>
<path d="M46.6729 51.8076L46.9057 52.5346L47.3018 52.2705L47.4897 52.5509L47.0146 52.8681L47.2705 53.6794L47.6667 53.414L47.8545 53.6944L47.3794 54.0116L47.6108 54.7358L47.2909 54.9495L47.0595 54.2253L46.417 54.6555L46.6484 55.3797L46.3258 55.5961L46.0944 54.8719L45.6982 55.136L45.5104 54.8556L45.9882 54.5357L45.7282 53.7257L45.332 53.9912L45.1442 53.7107L45.6193 53.3936L45.3865 52.6666L45.7091 52.4502L45.9419 53.1771L46.5844 52.7469L46.3516 52.02L46.6715 51.8063L46.6729 51.8076ZM46.692 53.0845L46.0494 53.5147L46.3094 54.3247L46.952 53.8945L46.692 53.0845Z" fill="#06070B"/>
<path d="M43.3514 53.851L44.5548 56.1761L45.0516 55.9188L45.2068 56.2183L44.3614 56.6552L43.0029 54.0307L43.3514 53.8496V53.851Z" fill="#06070B"/>
<path d="M40.8084 54.9986L41.0616 55.6329L42.4106 55.0938L42.5304 55.392L41.9138 57.7402L41.568 57.8791L40.8438 56.0658L40.4858 56.2087L40.366 55.9106L40.724 55.7677L40.4708 55.1333L40.8098 54.9972L40.8084 54.9986ZM42.2051 55.3715L42.3085 55.4805L41.1814 55.931L41.7844 57.4421L41.666 57.4557L42.2051 55.3729V55.3715Z" fill="#06070B"/>
<path d="M37.4515 57.3644L37.5018 57.698L34.4811 58.1581L34.4307 57.8246L37.4515 57.3644Z" fill="#06070B"/>
<path d="M31.1459 56.6144L30.9377 59.563L28.9788 59.4241L29.0128 58.949L30.434 59.0497L30.4871 58.2942L29.1448 58.1989L29.1789 57.7238L30.5211 57.8191L30.5756 57.0514L29.1544 56.9506L29.1884 56.4755L31.1473 56.6144H31.1459Z" fill="#06070B"/>
<path d="M28.6874 56.4238L27.4609 57.7075L28.1334 59.3274L27.5249 59.2131L26.9749 57.8858L27.2553 57.9389L26.2657 58.9762L25.6572 58.8619L26.8687 57.5959L26.1962 55.9555L26.8047 56.0699L27.3561 57.4121L27.0756 57.359L28.0803 56.3081L28.6888 56.4224L28.6874 56.4238Z" fill="#06070B"/>
<path d="M25.5428 55.7745L24.6525 58.5924L23.6002 58.2602C23.4083 58.199 23.2504 58.1118 23.1238 57.9948C22.9972 57.8777 22.9141 57.7416 22.8733 57.5823C22.8325 57.423 22.8406 57.2501 22.9005 57.0609C22.9591 56.8744 23.0516 56.7288 23.1782 56.6226C23.3048 56.5164 23.4518 56.4524 23.6206 56.4279C23.7894 56.4034 23.9691 56.4211 24.1611 56.4824L24.6988 56.6525L25.0282 55.6125L25.5428 55.7745ZM24.5559 57.1058L24.0113 56.9343C23.9174 56.9044 23.8316 56.8976 23.7513 56.9125C23.6724 56.9275 23.6029 56.9615 23.5444 57.016C23.4859 57.0691 23.4423 57.1399 23.4165 57.2256C23.3879 57.3141 23.3838 57.3958 23.4015 57.472C23.4192 57.5483 23.4559 57.615 23.5131 57.6735C23.5703 57.732 23.6451 57.7756 23.7377 57.8042L24.2822 57.9757L24.5572 57.1058H24.5559Z" fill="#06070B"/>
<path d="M22.7821 54.8406L21.5732 57.5387L19.7804 56.7356L19.9751 56.3013L21.2751 56.8839L21.5855 56.1924L20.3576 55.6424L20.5523 55.2082L21.7801 55.7581L22.0946 55.0557L20.7946 54.4731L20.9892 54.0388L22.7821 54.842V54.8406Z" fill="#06070B"/>
<path d="M20.329 53.6917L18.8166 56.2319L17.8719 55.6696C17.699 55.5662 17.5656 55.445 17.4689 55.3034C17.3737 55.1619 17.3233 55.0094 17.3192 54.8447C17.3151 54.68 17.3641 54.5139 17.4649 54.3424C17.5697 54.1668 17.699 54.0429 17.8556 53.9694C18.0121 53.8959 18.1782 53.8714 18.3538 53.8959L18.3783 52.5291L18.9038 52.8422L18.8643 54.3288L18.6696 53.9735L19.3067 54.3533L19.8648 53.4153L20.329 53.6917ZM19.0644 54.7616L18.577 54.4717C18.4926 54.4213 18.411 54.3955 18.3293 54.3914C18.2476 54.3873 18.1727 54.405 18.1033 54.4445C18.0339 54.4826 17.9767 54.5411 17.9304 54.6187C17.8828 54.6977 17.8596 54.7766 17.8583 54.8556C17.8583 54.9332 17.8787 55.008 17.9209 55.0775C17.9631 55.1469 18.0257 55.2068 18.1101 55.2572L18.5975 55.5471L19.0644 54.763V54.7616Z" fill="#06070B"/>
<path d="M17.454 51.8471L15.9634 53.8291L16.5759 54.2893L16.2901 54.6704L14.6415 53.4303L14.9274 53.0491L15.5305 53.5024L17.0211 51.5204L17.4553 51.8471H17.454Z" fill="#06070B"/>
<path d="M13.2952 49.9481L13.0379 50.1673L11.0572 47.8422L11.3145 47.623L13.2952 49.9481Z" fill="#06070B"/>
<path d="M10.5876 44.1653L7.95346 45.5062L7.80644 45.2162L9.16502 42.6188L9.24533 42.7427L7.10265 43.8331L6.92432 43.4833L9.55843 42.1424L9.70545 42.4324L8.32918 45.0297L8.25431 44.9167L10.4106 43.8195L10.5876 44.1653Z" fill="#06070B"/>
<path d="M9.17861 41.214L6.40564 42.2377L6.27087 41.8729L8.70896 40.9731L8.25973 39.7561L8.59461 39.6322L9.17861 41.214Z" fill="#06070B"/>
<path d="M8.28695 38.633L5.59294 40.1046L5.50173 39.7057L7.88265 38.4451L7.90443 38.5377L5.20633 38.4179L5.11512 38.0191L7.49059 36.7353L7.51237 36.832L4.81972 36.7353L4.72852 36.3365L7.79552 36.4808L7.89218 36.9028L5.53032 38.1879L5.50718 38.0871L8.19439 38.2096L8.29104 38.6316L8.28695 38.633Z" fill="#06070B"/>
<path d="M7.54506 34.8595L6.79907 34.6988L6.83038 35.1739L6.49414 35.1957L6.45602 34.6253L5.62427 34.4416L5.65558 34.9166L5.31934 34.9384L5.28122 34.368L4.53931 34.206L4.51345 33.8222L5.25535 33.9842L5.20363 33.2123L4.46172 33.0503L4.43585 32.6623L5.17776 32.8243L5.14645 32.3492L5.48269 32.3275L5.52081 32.9019L6.35256 33.0816L6.32125 32.6065L6.65749 32.5847L6.69561 33.1551L7.4416 33.3158L7.46747 33.7037L6.72147 33.5431L6.7732 34.315L7.5192 34.4756L7.54506 34.8595ZM6.43016 34.2374L6.37843 33.4655L5.54803 33.2858L5.59976 34.0577L6.43152 34.2374H6.43016Z" fill="#06070B"/>
<path d="M7.43346 30.9593L4.81704 30.8436L4.79254 31.4031L4.4563 31.3881L4.4985 30.4366L7.45116 30.5673L7.43346 30.9593Z" fill="#06070B"/>
<path d="M7.70432 28.1836L7.02912 28.0883L6.82628 29.5259L6.50774 29.481L4.77753 27.778L4.82926 27.4091L6.7623 27.6827L6.81675 27.3015L7.1353 27.3464L7.08085 27.7276L7.75605 27.8229L7.70432 28.185V28.1836ZM6.68607 29.2101L6.54041 29.2455L6.71057 28.0434L5.10015 27.8161L5.1478 27.7072L6.68607 29.2114V29.2101Z" fill="#06070B"/>
<path d="M7.3191 24.0957L7.00464 23.9745L8.10729 21.1253L8.42175 21.2465L7.3191 24.0957Z" fill="#06070B"/>
<path d="M11.109 19.0003L8.65863 17.3463L9.7572 15.7182L10.152 15.985L9.35425 17.1653L9.98181 17.59L10.7346 16.4751L11.1294 16.7419L10.3766 17.8568L11.015 18.287L11.8128 17.1067L12.2075 17.3735L11.109 19.0017V19.0003Z" fill="#06070B"/>
<path d="M12.5043 16.9665L12.0047 15.2636L10.265 15.0362L10.6679 14.5666L12.0918 14.7531L11.9053 14.9695L11.501 13.5932L11.904 13.1236L12.3954 14.8048L14.1528 15.0417L13.7499 15.5113L12.311 15.318L12.4975 15.1016L12.9059 16.4969L12.5029 16.9665H12.5043Z" fill="#06070B"/>
<path d="M14.6361 14.5666L12.6364 12.3898L13.449 11.6438C13.5974 11.5077 13.7526 11.4138 13.916 11.3634C14.0793 11.3117 14.24 11.309 14.3979 11.3512C14.5558 11.3934 14.7028 11.4887 14.8362 11.6357C14.9683 11.78 15.0486 11.9324 15.0785 12.0958C15.1071 12.2578 15.0894 12.4184 15.0268 12.5763C14.9642 12.7342 14.858 12.8813 14.711 13.0174L14.2958 13.3986L15.0336 14.2017L14.6361 14.5666ZM13.9731 13.0473L14.3938 12.6607C14.4659 12.594 14.5149 12.5232 14.5422 12.447C14.5694 12.3708 14.5735 12.2932 14.5558 12.2156C14.5381 12.138 14.5 12.0658 14.4387 12.0005C14.3761 11.9324 14.308 11.8875 14.2332 11.8644C14.1583 11.8412 14.0821 11.8399 14.0031 11.8603C13.9241 11.8807 13.8493 11.9229 13.7771 11.9896L13.3565 12.3762L13.9745 13.0487L13.9731 13.0473Z" fill="#06070B"/>
<path d="M16.8237 12.6363L15.0839 10.2472L16.6712 9.09143L16.9516 9.47668L15.8 10.3152L16.2465 10.9278L17.3342 10.1355L17.6146 10.5208L16.5269 11.3131L16.9802 11.9352L18.1319 11.0966L18.4123 11.4819L16.825 12.6376L16.8237 12.6363Z" fill="#06070B"/>
<path d="M19.0358 11.0802L17.5819 8.50738L18.5389 7.96694C18.7145 7.86757 18.886 7.81175 19.0576 7.7995C19.2277 7.78725 19.3856 7.81992 19.5299 7.89752C19.6742 7.97511 19.7954 8.10035 19.8934 8.27324C19.9941 8.4502 20.0363 8.62445 20.0227 8.79734C20.0091 8.96886 19.9478 9.12541 19.8389 9.26562L21.0137 9.96397L20.4815 10.2648L19.2114 9.49296L19.6171 9.50113L18.9704 9.86596L19.5068 10.8161L19.0371 11.0816L19.0358 11.0802ZM18.7349 9.45076L19.2291 9.17169C19.3148 9.12405 19.3788 9.06551 19.4224 8.99609C19.4659 8.92802 19.4877 8.85315 19.4891 8.77419C19.4891 8.69524 19.4687 8.61628 19.4237 8.53733C19.3788 8.45701 19.3217 8.39711 19.2536 8.35764C19.1855 8.31816 19.112 8.2991 19.0303 8.30182C18.9487 8.30318 18.8656 8.32905 18.7812 8.37669L18.2871 8.65576L18.7363 9.45076H18.7349Z" fill="#06070B"/>
<path d="M22.0688 9.4998L21.09 7.22098L20.3862 7.52319L20.1984 7.08621L22.0933 6.27216L22.2812 6.70913L21.5883 7.00726L22.567 9.28607L22.0674 9.50116L22.0688 9.4998Z" fill="#06070B"/>
<path d="M25.7851 6.8385L25.7239 6.50634L28.7283 5.95093L28.7895 6.28309L25.7851 6.8385Z" fill="#06070B"/>
<defs>
<radialGradient id="paint0_radial_149_298" cx="0" cy="0" r="1" gradientUnits="userSpaceOnUse" gradientTransform="translate(31.8997 -12.7398) rotate(81.8019) scale(107.633 95.4655)">
<stop stop-color="#D1F593"/>
<stop offset="1" stop-color="#859398"/>
</radialGradient>
</defs>
</svg>
